<svg xmlns="http://www.w3.org/2000/svg" viewBox="0 0 100 100" fill="none">
  <defs>
    <linearGradient id="spiralGrad" x1="100%" y1="0%" x2="0%" y2="100%" gradientUnits="objectBoundingBox">
      <stop offset="0%"   stop-color="#3EFFC1"/>
      <stop offset="100%" stop-color="#2BD9A4"/>
    </linearGradient>
    <linearGradient id="highlightGrad" x1="100%" y1="0%" x2="0%" y2="100%" gradientUnits="objectBoundingBox">
      <stop offset="0%"   stop-color="#ffffff" stop-opacity="0.22"/>
      <stop offset="50%"  stop-color="#ffffff" stop-opacity="0.08"/>
      <stop offset="100%" stop-color="#ffffff" stop-opacity="0.0"/>
    </linearGradient>
    <filter id="softglow" x="-15%" y="-15%" width="130%" height="130%">
      <feGaussianBlur in="SourceGraphic" stdDeviation="2" result="blur"/>
      <feMerge>
        <feMergeNode in="blur"/>
        <feMergeNode in="SourceGraphic"/>
      </feMerge>
    </filter>
  </defs>

  <!-- Base spiral — thick, gradient fill -->
  <path
    d="M42.929 57.071 L43.086 57.363 L43.255 57.651 L43.435 57.936 L43.626 58.218 L43.828 58.495 L44.042 58.767 L44.267 59.034 L44.502 59.296 L44.749 59.552 L45.006 59.801 L45.274 60.044 L45.552 60.279 L45.840 60.506 L46.138 60.726 L46.446 60.937 L46.764 61.139 L47.090 61.332 L47.426 61.516 L47.770 61.689 L48.123 61.852 L48.483 62.005 L48.852 62.146 L49.228 62.276 L49.611 62.394 L50.000 62.500 L50.396 62.594 L50.797 62.675 L51.205 62.743 L51.617 62.798 L52.034 62.840 L52.455 62.868 L52.879 62.882 L53.308 62.882 L53.738 62.868 L54.172 62.839 L54.607 62.796 L55.043 62.738 L55.481 62.665 L55.918 62.577 L56.356 62.474 L56.793 62.356 L57.228 62.223 L57.662 62.074 L58.094 61.910 L58.523 61.731 L58.948 61.536 L59.370 61.327 L59.787 61.102 L60.200 60.862 L60.607 60.607 L61.007 60.337 L61.402 60.052 L61.789 59.753 L62.168 59.439 L62.540 59.111 L62.902 58.769 L63.256 58.412 L63.600 58.043 L63.933 57.660 L64.256 57.264 L64.568 56.855 L64.868 56.434 L65.155 56.000 L65.430 55.555 L65.692 55.099 L65.941 54.631 L66.175 54.153 L66.395 53.665 L66.601 53.167 L66.791 52.659 L66.965 52.143 L67.124 51.619 L67.266 51.086 L67.391 50.547 L67.500 50.000 L67.591 49.447 L67.665 48.889 L67.721 48.325 L67.759 47.757 L67.778 47.184 L67.779 46.608 L67.762 46.030 L67.725 45.449 L67.669 44.867 L67.595 44.283 L67.500 43.699 L67.387 43.116 L67.254 42.534 L67.101 41.953 L66.929 41.374 L66.737 40.799 L66.526 40.226 L66.296 39.659 L66.045 39.096 L65.776 38.538 L65.487 37.987 L65.179 37.443 L64.852 36.906 L64.506 36.378 L64.142 35.858 L63.759 35.348 L63.358 34.848 L62.940 34.359 L62.503 33.881 L62.050 33.415 L61.579 32.962 L61.092 32.522 L60.588 32.097 L60.069 31.685 L59.534 31.289 L58.984 30.908 L58.420 30.544 L57.841 30.196 L57.249 29.865 L56.644 29.552 L56.026 29.258 L55.397 28.982 L54.756 28.725 L54.104 28.488 L53.442 28.271 L52.770 28.074 L52.089 27.899 L51.400 27.744 L50.704 27.611 L50.000 27.500 L49.290 27.411 L48.575 27.345 L47.854 27.301 L47.130 27.281 L46.402 27.283 L45.671 27.309 L44.939 27.359 L44.206 27.432 L43.472 27.529 L42.738 27.650 L42.006 27.795 L41.275 27.964 L40.548 28.157 L39.824 28.375 L39.104 28.616 L38.390 28.881 L37.681 29.170 L36.979 29.483 L36.285 29.819 L35.599 30.179 L34.922 30.562 L34.256 30.968 L33.599 31.397 L32.955 31.849 L32.322 32.322 L31.703 32.818 L31.097 33.335 L30.506 33.873 L29.930 34.432 L29.370 35.011 L28.827 35.611 L28.301 36.229 L27.793 36.867 L27.304 37.523 L26.834 38.196 L26.384 38.887 L25.955 39.595 L25.547 40.318 L25.161 41.057 L24.797 41.811 L24.456 42.579 L24.139 43.360 L23.845 44.154 L23.576 44.959 L23.332 45.776 L23.114 46.603 L22.921 47.440 L22.754 48.286 L22.614 49.139 L22.500 50.000 L22.414 50.867 L22.355 51.739 L22.323 52.616 L22.320 53.497 L22.345 54.380 L22.398 55.265 L22.479 56.152 L22.589 57.038 L22.728 57.923 L22.895 58.807 L23.091 59.688 L23.315 60.565 L23.569 61.438 L23.850 62.305 L24.161 63.166 L24.499 64.019 L24.866 64.864 L25.261 65.700 L25.684 66.525 L26.134 67.340 L26.611 68.142 L27.116 68.931 L27.647 69.707 L28.204 70.468 L28.787 71.213 L29.395 71.942 L30.028 72.653 L30.686 73.347 L31.368 74.021 L32.073 74.675 L32.800 75.309 L33.550 75.921 L34.322 76.511 L35.114 77.078 L35.926 77.621 L36.758 78.140 L37.609 78.634 L38.478 79.102 L39.364 79.544 L40.266 79.958 L41.184 80.345 L42.117 80.704 L43.063 81.034 L44.023 81.335 L44.994 81.606 L45.977 81.847 L46.970 82.057 L47.972 82.236 L48.982 82.384 L50.000 82.500 L51.024 82.584 L52.053 82.635 L53.087 82.654 L54.123 82.641 L55.162 82.594 L56.202 82.514 L57.242 82.400 L58.281 82.254 L59.318 82.074 L60.352 81.860 L61.382 81.614 L62.406 81.333 L63.424 81.020 L64.434 80.674 L65.436 80.294 L66.428 79.882 L67.409 79.437 L68.379 78.960 L69.336 78.452 L70.279 77.911 L71.207 77.339 L72.119 76.737 L73.014 76.104 L73.891 75.441 L74.749 74.749 L75.587 74.028 L76.404 73.278 L77.199 72.501 L77.971 71.697 L78.720 70.866 L79.444 70.010 L80.143 69.129 L80.815 68.224 L81.459 67.295 L82.076 66.344 L82.664 65.371 L83.223 64.377 L83.751 63.363 L84.248 62.330 L84.714 61.279 L85.147 60.211 L85.547 59.127 L85.914 58.028 L86.246 56.914 L86.544 55.788 L86.807 54.650 L87.035 53.501 L87.226 52.342 L87.382 51.175 L87.500 50.000 L87.581 48.819 L87.626 47.633 L87.632 46.443 L87.601 45.250 L87.532 44.055 L87.425 42.861 L87.280 41.667 L87.097 40.475 L86.875 39.287 L86.616 38.103 L86.318 36.925 L85.982 35.754 L85.609 34.591 L85.198 33.437 L84.749 32.294 L84.264 31.163 L83.741 30.046 L83.182 28.942 L82.587 27.854 L81.956 26.782 L81.290 25.729 L80.589 24.694 L79.854 23.680 L79.086 22.687 L78.284 21.716"
    stroke="url(#spiralGrad)"
    stroke-width="20"
    stroke-linecap="round"
    stroke-linejoin="round"
  />

  <!-- Highlight overlay — thinner, semi-transparent white, for 3D raised look -->
  <path
    d="M42.929 57.071 L43.086 57.363 L43.255 57.651 L43.435 57.936 L43.626 58.218 L43.828 58.495 L44.042 58.767 L44.267 59.034 L44.502 59.296 L44.749 59.552 L45.006 59.801 L45.274 60.044 L45.552 60.279 L45.840 60.506 L46.138 60.726 L46.446 60.937 L46.764 61.139 L47.090 61.332 L47.426 61.516 L47.770 61.689 L48.123 61.852 L48.483 62.005 L48.852 62.146 L49.228 62.276 L49.611 62.394 L50.000 62.500 L50.396 62.594 L50.797 62.675 L51.205 62.743 L51.617 62.798 L52.034 62.840 L52.455 62.868 L52.879 62.882 L53.308 62.882 L53.738 62.868 L54.172 62.839 L54.607 62.796 L55.043 62.738 L55.481 62.665 L55.918 62.577 L56.356 62.474 L56.793 62.356 L57.228 62.223 L57.662 62.074 L58.094 61.910 L58.523 61.731 L58.948 61.536 L59.370 61.327 L59.787 61.102 L60.200 60.862 L60.607 60.607 L61.007 60.337 L61.402 60.052 L61.789 59.753 L62.168 59.439 L62.540 59.111 L62.902 58.769 L63.256 58.412 L63.600 58.043 L63.933 57.660 L64.256 57.264 L64.568 56.855 L64.868 56.434 L65.155 56.000 L65.430 55.555 L65.692 55.099 L65.941 54.631 L66.175 54.153 L66.395 53.665 L66.601 53.167 L66.791 52.659 L66.965 52.143 L67.124 51.619 L67.266 51.086 L67.391 50.547 L67.500 50.000 L67.591 49.447 L67.665 48.889 L67.721 48.325 L67.759 47.757 L67.778 47.184 L67.779 46.608 L67.762 46.030 L67.725 45.449 L67.669 44.867 L67.595 44.283 L67.500 43.699 L67.387 43.116 L67.254 42.534 L67.101 41.953 L66.929 41.374 L66.737 40.799 L66.526 40.226 L66.296 39.659 L66.045 39.096 L65.776 38.538 L65.487 37.987 L65.179 37.443 L64.852 36.906 L64.506 36.378 L64.142 35.858 L63.759 35.348 L63.358 34.848 L62.940 34.359 L62.503 33.881 L62.050 33.415 L61.579 32.962 L61.092 32.522 L60.588 32.097 L60.069 31.685 L59.534 31.289 L58.984 30.908 L58.420 30.544 L57.841 30.196 L57.249 29.865 L56.644 29.552 L56.026 29.258 L55.397 28.982 L54.756 28.725 L54.104 28.488 L53.442 28.271 L52.770 28.074 L52.089 27.899 L51.400 27.744 L50.704 27.611 L50.000 27.500 L49.290 27.411 L48.575 27.345 L47.854 27.301 L47.130 27.281 L46.402 27.283 L45.671 27.309 L44.939 27.359 L44.206 27.432 L43.472 27.529 L42.738 27.650 L42.006 27.795 L41.275 27.964 L40.548 28.157 L39.824 28.375 L39.104 28.616 L38.390 28.881 L37.681 29.170 L36.979 29.483 L36.285 29.819 L35.599 30.179 L34.922 30.562 L34.256 30.968 L33.599 31.397 L32.955 31.849 L32.322 32.322 L31.703 32.818 L31.097 33.335 L30.506 33.873 L29.930 34.432 L29.370 35.011 L28.827 35.611 L28.301 36.229 L27.793 36.867 L27.304 37.523 L26.834 38.196 L26.384 38.887 L25.955 39.595 L25.547 40.318 L25.161 41.057 L24.797 41.811 L24.456 42.579 L24.139 43.360 L23.845 44.154 L23.576 44.959 L23.332 45.776 L23.114 46.603 L22.921 47.440 L22.754 48.286 L22.614 49.139 L22.500 50.000 L22.414 50.867 L22.355 51.739 L22.323 52.616 L22.320 53.497 L22.345 54.380 L22.398 55.265 L22.479 56.152 L22.589 57.038 L22.728 57.923 L22.895 58.807 L23.091 59.688 L23.315 60.565 L23.569 61.438 L23.850 62.305 L24.161 63.166 L24.499 64.019 L24.866 64.864 L25.261 65.700 L25.684 66.525 L26.134 67.340 L26.611 68.142 L27.116 68.931 L27.647 69.707 L28.204 70.468 L28.787 71.213 L29.395 71.942 L30.028 72.653 L30.686 73.347 L31.368 74.021 L32.073 74.675 L32.800 75.309 L33.550 75.921 L34.322 76.511 L35.114 77.078 L35.926 77.621 L36.758 78.140 L37.609 78.634 L38.478 79.102 L39.364 79.544 L40.266 79.958 L41.184 80.345 L42.117 80.704 L43.063 81.034 L44.023 81.335 L44.994 81.606 L45.977 81.847 L46.970 82.057 L47.972 82.236 L48.982 82.384 L50.000 82.500 L51.024 82.584 L52.053 82.635 L53.087 82.654 L54.123 82.641 L55.162 82.594 L56.202 82.514 L57.242 82.400 L58.281 82.254 L59.318 82.074 L60.352 81.860 L61.382 81.614 L62.406 81.333 L63.424 81.020 L64.434 80.674 L65.436 80.294 L66.428 79.882 L67.409 79.437 L68.379 78.960 L69.336 78.452 L70.279 77.911 L71.207 77.339 L72.119 76.737 L73.014 76.104 L73.891 75.441 L74.749 74.749 L75.587 74.028 L76.404 73.278 L77.199 72.501 L77.971 71.697 L78.720 70.866 L79.444 70.010 L80.143 69.129 L80.815 68.224 L81.459 67.295 L82.076 66.344 L82.664 65.371 L83.223 64.377 L83.751 63.363 L84.248 62.330 L84.714 61.279 L85.147 60.211 L85.547 59.127 L85.914 58.028 L86.246 56.914 L86.544 55.788 L86.807 54.650 L87.035 53.501 L87.226 52.342 L87.382 51.175 L87.500 50.000 L87.581 48.819 L87.626 47.633 L87.632 46.443 L87.601 45.250 L87.532 44.055 L87.425 42.861 L87.280 41.667 L87.097 40.475 L86.875 39.287 L86.616 38.103 L86.318 36.925 L85.982 35.754 L85.609 34.591 L85.198 33.437 L84.749 32.294 L84.264 31.163 L83.741 30.046 L83.182 28.942 L82.587 27.854 L81.956 26.782 L81.290 25.729 L80.589 24.694 L79.854 23.680 L79.086 22.687 L78.284 21.716"
    stroke="url(#highlightGrad)"
    stroke-width="10"
    stroke-linecap="round"
    stroke-linejoin="round"
  />
</svg>
