<svg xmlns="http://www.w3.org/2000/svg" viewBox="0 0 100 100" fill="none">
  <defs>
    <radialGradient id="spiralGrad" cx="50%" cy="50%" r="55%" gradientUnits="userSpaceOnUse">
      <stop offset="0%"   stop-color="#2BD9A4"/>
      <stop offset="100%" stop-color="#3EFFC1"/>
    </radialGradient>
    <filter id="glow" x="-20%" y="-20%" width="140%" height="140%">
      <feGaussianBlur in="SourceAlpha" stdDeviation="2.5" result="blur"/>
      <feFlood flood-color="#2BD9A4" flood-opacity="0.45" result="color"/>
      <feComposite in="color" in2="blur" operator="in" result="shadow"/>
      <feComposite in="SourceGraphic" in2="shadow" operator="over"/>
    </filter>
    <filter id="depth" x="-10%" y="-10%" width="120%" height="120%">
      <feDropShadow dx="0" dy="1.5" stdDeviation="1.8" flood-color="#000000" flood-opacity="0.55"/>
    </filter>
  </defs>
  <path
    d="M50.000 50.000 L50.093 49.899 L50.176 49.791 L50.251 49.676 L50.317 49.554 L50.372 49.427 L50.417 49.294 L50.452 49.157 L50.476 49.016 L50.488 48.871 L50.490 48.724 L50.480 48.575 L50.458 48.425 L50.424 48.275 L50.378 48.124 L50.321 47.975 L50.251 47.828 L50.170 47.683 L50.077 47.541 L49.973 47.403 L49.857 47.270 L49.730 47.143 L49.592 47.021 L49.443 46.906 L49.284 46.799 L49.116 46.700 L48.937 46.609 L48.750 46.528 L48.554 46.457 L48.350 46.396 L48.139 46.347 L47.920 46.309 L47.695 46.283 L47.465 46.270 L47.230 46.270 L46.990 46.283 L46.746 46.309 L46.500 46.350 L46.252 46.405 L46.002 46.475 L45.752 46.560 L45.502 46.659 L45.253 46.774 L45.005 46.903 L44.761 47.048 L44.520 47.208 L44.284 47.383 L44.053 47.573 L43.828 47.778 L43.610 47.997 L43.400 48.231 L43.198 48.480 L43.006 48.742 L42.824 49.017 L42.653 49.305 L42.494 49.607 L42.347 49.920 L42.214 50.245 L42.095 50.581 L41.990 50.927 L41.901 51.283 L41.828 51.648 L41.771 52.021 L41.732 52.402 L41.710 52.790 L41.707 53.184 L41.722 53.582 L41.756 53.985 L41.810 54.392 L41.883 54.800 L41.977 55.210 L42.091 55.621 L42.225 56.031 L42.380 56.440 L42.556 56.845 L42.752 57.248 L42.970 57.646 L43.208 58.038 L43.466 58.423 L43.746 58.801 L44.045 59.169 L44.365 59.528 L44.704 59.876 L45.063 60.213 L45.441 60.536 L45.837 60.845 L46.251 61.139 L46.683 61.418 L47.131 61.680 L47.596 61.923 L48.076 62.149 L48.571 62.354 L49.079 62.540 L49.601 62.704 L50.135 62.846 L50.679 62.966 L51.235 63.062 L51.799 63.134 L52.372 63.182 L52.951 63.204 L53.537 63.201 L54.128 63.172 L54.722 63.116 L55.319 63.033 L55.917 62.923 L56.515 62.786 L57.112 62.621 L57.706 62.428 L58.296 62.208 L58.882 61.959 L59.461 61.683 L60.032 61.379 L60.594 61.048 L61.146 60.689 L61.687 60.303 L62.214 59.891 L62.727 59.452 L63.225 58.988 L63.706 58.498 L64.169 57.984 L64.613 57.445 L65.036 56.884 L65.437 56.300 L65.816 55.694 L66.171 55.068 L66.501 54.421 L66.805 53.756 L67.082 53.074 L67.331 52.374 L67.552 51.659 L67.742 50.930 L67.902 50.187 L68.031 49.433 L68.128 48.669 L68.192 47.895 L68.223 47.114 L68.220 46.326 L68.183 45.534 L68.111 44.738 L68.004 43.941 L67.863 43.143 L67.685 42.347 L67.472 41.554 L67.224 40.765 L66.939 39.982 L66.620 39.207 L66.265 38.441 L65.874 37.687 L65.449 36.945 L64.989 36.217 L64.496 35.504 L63.968 34.809 L63.408 34.133 L62.816 33.478 L62.192 32.844 L61.537 32.234 L60.853 31.649 L60.139 31.090 L59.398 30.559 L58.630 30.057 L57.836 29.586 L57.018 29.146 L56.177 28.739 L55.314 28.366 L54.430 28.029 L53.528 27.728 L52.608 27.464 L51.672 27.238 L50.721 27.051 L49.758 26.905 L48.784 26.799 L47.801 26.734 L46.810 26.711 L45.813 26.730 L44.813 26.793 L43.810 26.898 L42.807 27.047 L41.806 27.240 L40.808 27.477 L39.816 27.757 L38.832 28.081 L37.857 28.449 L36.893 28.860 L35.942 29.315 L35.007 29.812 L34.089 30.351 L33.189 30.932 L32.311 31.554 L31.456 32.217 L30.625 32.918 L29.820 33.659 L29.044 34.437 L28.297 35.251 L27.583 36.101 L26.901 36.985 L26.255 37.901 L25.645 38.849 L25.072 39.827 L24.540 40.834 L24.048 41.867 L23.598 42.926 L23.192 44.008 L22.830 45.111 L22.513 46.235 L22.244 47.376 L22.022 48.534 L21.848 49.705 L21.724 50.889 L21.650 52.082 L21.626 53.283 L21.653 54.490 L21.732 55.700 L21.863 56.911 L22.046 58.121 L22.281 59.328 L22.568 60.530 L22.908 61.724 L23.300 62.908 L23.743 64.079 L24.238 65.236 L24.784 66.375 L25.380 67.496 L26.027 68.596 L26.722 69.671 L27.466 70.721 L28.256 71.744 L29.094 72.736 L29.976 73.695 L30.902 74.621 L31.870 75.511 L32.880 76.362 L33.930 77.174 L35.017 77.943 L36.141 78.669 L37.299 79.350 L38.490 79.983 L39.712 80.569 L40.963 81.104 L42.241 81.588 L43.544 82.019 L44.869 82.396 L46.214 82.718 L47.578 82.985 L48.957 83.194 L50.349 83.345 L51.752 83.437 L53.164 83.471 L54.581 83.444 L56.002 83.358 L57.423 83.210 L58.843 83.002 L60.258 82.734 L61.666 82.404 L63.064 82.014 L64.450 81.563 L65.822 81.052 L67.175 80.481 L68.508 79.851 L69.819 79.163 L71.104 78.417 L72.362 77.615 L73.589 76.756 L74.783 75.844 L75.942 74.878 L77.064 73.860 L78.146 72.792 L79.185 71.675 L80.180 70.510 L81.129 69.301 L82.029 68.047 L82.878 66.752 L83.675 65.418 L84.418 64.046 L85.104 62.638 L85.733 61.198 L86.303 59.727 L86.812 58.228 L87.258 56.704 L87.642 55.156 L87.961 53.588 L88.214 52.003 L88.401 50.402 L88.521 48.789 L88.573 47.167 L88.556 45.539 L88.470 43.907 L88.316 42.274 L88.091 40.644 L87.797 39.019 L87.434 37.402 L87.001 35.797 L86.499 34.205 L85.929 32.631 L85.290 31.077 L84.585 29.547 L83.812 28.042 L82.975 26.566 L82.072 25.122 L81.107 23.713 L80.079 22.341 L78.991 21.009"
    stroke="url(#spiralGrad)"
    stroke-width="7"
    stroke-linecap="round"
    stroke-linejoin="round"
    filter="url(#depth)"
  />
  <path
    d="M50.000 50.000 L50.093 49.899 L50.176 49.791 L50.251 49.676 L50.317 49.554 L50.372 49.427 L50.417 49.294 L50.452 49.157 L50.476 49.016 L50.488 48.871 L50.490 48.724 L50.480 48.575 L50.458 48.425 L50.424 48.275 L50.378 48.124 L50.321 47.975 L50.251 47.828 L50.170 47.683 L50.077 47.541 L49.973 47.403 L49.857 47.270 L49.730 47.143 L49.592 47.021 L49.443 46.906 L49.284 46.799 L49.116 46.700 L48.937 46.609 L48.750 46.528 L48.554 46.457 L48.350 46.396 L48.139 46.347 L47.920 46.309 L47.695 46.283 L47.465 46.270 L47.230 46.270 L46.990 46.283 L46.746 46.309 L46.500 46.350 L46.252 46.405 L46.002 46.475 L45.752 46.560 L45.502 46.659 L45.253 46.774 L45.005 46.903 L44.761 47.048 L44.520 47.208 L44.284 47.383 L44.053 47.573 L43.828 47.778 L43.610 47.997 L43.400 48.231 L43.198 48.480 L43.006 48.742 L42.824 49.017 L42.653 49.305 L42.494 49.607 L42.347 49.920 L42.214 50.245 L42.095 50.581 L41.990 50.927 L41.901 51.283 L41.828 51.648 L41.771 52.021 L41.732 52.402 L41.710 52.790 L41.707 53.184 L41.722 53.582 L41.756 53.985 L41.810 54.392 L41.883 54.800 L41.977 55.210 L42.091 55.621 L42.225 56.031 L42.380 56.440 L42.556 56.845 L42.752 57.248 L42.970 57.646 L43.208 58.038 L43.466 58.423 L43.746 58.801 L44.045 59.169 L44.365 59.528 L44.704 59.876 L45.063 60.213 L45.441 60.536 L45.837 60.845 L46.251 61.139 L46.683 61.418 L47.131 61.680 L47.596 61.923 L48.076 62.149 L48.571 62.354 L49.079 62.540 L49.601 62.704 L50.135 62.846 L50.679 62.966 L51.235 63.062 L51.799 63.134 L52.372 63.182 L52.951 63.204 L53.537 63.201 L54.128 63.172 L54.722 63.116 L55.319 63.033 L55.917 62.923 L56.515 62.786 L57.112 62.621 L57.706 62.428 L58.296 62.208 L58.882 61.959 L59.461 61.683 L60.032 61.379 L60.594 61.048 L61.146 60.689 L61.687 60.303 L62.214 59.891 L62.727 59.452 L63.225 58.988 L63.706 58.498 L64.169 57.984 L64.613 57.445 L65.036 56.884 L65.437 56.300 L65.816 55.694 L66.171 55.068 L66.501 54.421 L66.805 53.756 L67.082 53.074 L67.331 52.374 L67.552 51.659 L67.742 50.930 L67.902 50.187 L68.031 49.433 L68.128 48.669 L68.192 47.895 L68.223 47.114 L68.220 46.326 L68.183 45.534 L68.111 44.738 L68.004 43.941 L67.863 43.143 L67.685 42.347 L67.472 41.554 L67.224 40.765 L66.939 39.982 L66.620 39.207 L66.265 38.441 L65.874 37.687 L65.449 36.945 L64.989 36.217 L64.496 35.504 L63.968 34.809 L63.408 34.133 L62.816 33.478 L62.192 32.844 L61.537 32.234 L60.853 31.649 L60.139 31.090 L59.398 30.559 L58.630 30.057 L57.836 29.586 L57.018 29.146 L56.177 28.739 L55.314 28.366 L54.430 28.029 L53.528 27.728 L52.608 27.464 L51.672 27.238 L50.721 27.051 L49.758 26.905 L48.784 26.799 L47.801 26.734 L46.810 26.711 L45.813 26.730 L44.813 26.793 L43.810 26.898 L42.807 27.047 L41.806 27.240 L40.808 27.477 L39.816 27.757 L38.832 28.081 L37.857 28.449 L36.893 28.860 L35.942 29.315 L35.007 29.812 L34.089 30.351 L33.189 30.932 L32.311 31.554 L31.456 32.217 L30.625 32.918 L29.820 33.659 L29.044 34.437 L28.297 35.251 L27.583 36.101 L26.901 36.985 L26.255 37.901 L25.645 38.849 L25.072 39.827 L24.540 40.834 L24.048 41.867 L23.598 42.926 L23.192 44.008 L22.830 45.111 L22.513 46.235 L22.244 47.376 L22.022 48.534 L21.848 49.705 L21.724 50.889 L21.650 52.082 L21.626 53.283 L21.653 54.490 L21.732 55.700 L21.863 56.911 L22.046 58.121 L22.281 59.328 L22.568 60.530 L22.908 61.724 L23.300 62.908 L23.743 64.079 L24.238 65.236 L24.784 66.375 L25.380 67.496 L26.027 68.596 L26.722 69.671 L27.466 70.721 L28.256 71.744 L29.094 72.736 L29.976 73.695 L30.902 74.621 L31.870 75.511 L32.880 76.362 L33.930 77.174 L35.017 77.943 L36.141 78.669 L37.299 79.350 L38.490 79.983 L39.712 80.569 L40.963 81.104 L42.241 81.588 L43.544 82.019 L44.869 82.396 L46.214 82.718 L47.578 82.985 L48.957 83.194 L50.349 83.345 L51.752 83.437 L53.164 83.471 L54.581 83.444 L56.002 83.358 L57.423 83.210 L58.843 83.002 L60.258 82.734 L61.666 82.404 L63.064 82.014 L64.450 81.563 L65.822 81.052 L67.175 80.481 L68.508 79.851 L69.819 79.163 L71.104 78.417 L72.362 77.615 L73.589 76.756 L74.783 75.844 L75.942 74.878 L77.064 73.860 L78.146 72.792 L79.185 71.675 L80.180 70.510 L81.129 69.301 L82.029 68.047 L82.878 66.752 L83.675 65.418 L84.418 64.046 L85.104 62.638 L85.733 61.198 L86.303 59.727 L86.812 58.228 L87.258 56.704 L87.642 55.156 L87.961 53.588 L88.214 52.003 L88.401 50.402 L88.521 48.789 L88.573 47.167 L88.556 45.539 L88.470 43.907 L88.316 42.274 L88.091 40.644 L87.797 39.019 L87.434 37.402 L87.001 35.797 L86.499 34.205 L85.929 32.631 L85.290 31.077 L84.585 29.547 L83.812 28.042 L82.975 26.566 L82.072 25.122 L81.107 23.713 L80.079 22.341 L78.991 21.009"
    stroke="url(#spiralGrad)"
    stroke-width="2.5"
    stroke-linecap="round"
    stroke-linejoin="round"
    opacity="0.35"
  />
</svg>
